<?xml version="1.0" standalone="no"?><!DOCTYPE svg PUBLIC "-//W3C//DTD SVG 1.1//EN" "http://www.w3.org/Graphics/SVG/1.1/DTD/svg11.dtd"><svg t="1589607169274" class="icon" viewBox="0 0 1024 1024" version="1.1" xmlns="http://www.w3.org/2000/svg" p-id="2778" xmlns:xlink="http://www.w3.org/1999/xlink" width="32" height="32"><defs><style type="text/css"></style></defs><path d="M341.48322 377.359973a56.827852 56.827852 0 0 1 113.655704 0v377.316456a56.827852 56.827852 0 0 1-113.655704 0z m227.311407 0a56.827852 56.827852 0 0 1 113.655703 0v377.316456a56.827852 56.827852 0 0 1-113.655703 0z m341.479072 538.584683A111.09589 111.09589 0 0 1 796.617996 1023.96877H227.315555a111.09589 111.09589 0 0 1-113.655703-108.024114V215.579783A55.291964 55.291964 0 0 1 56.832 161.823707a55.291964 55.291964 0 0 1 56.827852-53.756076h284.65122A110.583927 110.583927 0 0 1 511.966775 0.043517a110.583927 110.583927 0 0 1 113.655703 108.024114h284.651221a55.291964 55.291964 0 0 1 56.827851 53.756076 55.291964 55.291964 0 0 1-56.827851 51.196263z m-682.958144 0h569.302441V215.579783H227.315555z" p-id="2779" fill="#0404F4"></path></svg>