<svg xmlns="http://www.w3.org/2000/svg" width="298.86" height="246.664" viewBox="0 0 298.86 246.664">
  <g id="Group_2" data-name="Group 2" transform="translate(-1326.066 -794.633)">
    <path id="Path_1" data-name="Path 1" d="M1426.019,822.9a28.276,28.276,0,0,1,56.553,0l.022,42.984a16.84,16.84,0,0,0,22.036,16.01l40.886-13.264a28.278,28.278,0,0,1,17.476,53.788l-40.872,13.3a16.84,16.84,0,0,0-8.417,25.906l25.247,34.787a28.277,28.277,0,0,1-45.752,33.242l-25.281-34.762a16.84,16.84,0,0,0-27.239,0l-25.283,34.762a28.277,28.277,0,0,1-45.752-33.242l25.247-34.787a16.839,16.839,0,0,0-8.417-25.906l-40.872-13.3a28.278,28.278,0,0,1,17.478-53.788l40.883,13.264A16.84,16.84,0,0,0,1426,865.881Z" transform="translate(0 0)" fill="#fff" fill-rule="evenodd"/>
    <g id="Group_1" data-name="Group 1" transform="translate(1451.266 919.676)">
      <path id="Path_2" data-name="Path 2" d="M1909.131,1411.164c-7.493,0-13.312-5.015-13.377-12.94,0-.62.065-1.118.807-1.118h6.314c.683,0,1.053.249,1.114.929.248,2.353,1.672,5.575,5.2,5.575a4.166,4.166,0,0,0,4.4-4.152c.869-8.047-17.148-11.764-17.148-24.331,0-6.566,4.7-11.52,12.257-11.52,8.052,0,12.141,5.386,12.263,12.135.061.619-.065,1.115-.807,1.115h-6.316c-.68,0-.99-.248-1.052-.929-.37-2.1-1.3-4.706-3.837-4.706a3.389,3.389,0,0,0-3.469,3.963c.869,6.255,17.152,11.333,17.152,23.719C1922.63,1407.387,1915.136,1411.164,1909.131,1411.164Z" transform="translate(-1895.754 -1363.607)" fill="#fcec0c"/>
      <path id="Path_3" data-name="Path 3" d="M2050.007,1367.433v5.324c0,.929-.368,1.3-1.3,1.3H2043.2c-.928,0-1.174.249-1.174,1.177v36.039c0,.932-.373,1.3-1.3,1.3H2034.4c-.927,0-1.3-.37-1.3-1.3v-36.039c0-.929-.245-1.177-1.176-1.177h-5.512c-.928,0-1.3-.372-1.3-1.3v-5.324c0-.927.373-1.3,1.3-1.3h22.3C2049.639,1366.133,2050.007,1366.506,2050.007,1367.433Z" transform="translate(-1996.683 -1365.578)" fill="#fcec0c"/>
      <path id="Path_4" data-name="Path 4" d="M2149.771,1367.371c.245-1.053.683-1.238,1.675-1.238h5.013c.99,0,1.422.185,1.672,1.238l10.461,43.966c.254.93-.242,1.239-.927,1.239h-6.5c-.807,0-1.238-.249-1.484-1.239l-1.179-5.325c-.186-.744-.434-.868-1.235-.868h-6.632c-.8,0-1.053.125-1.241.868l-1.171,5.325c-.25.99-.685,1.239-1.486,1.239h-6.5c-.68,0-1.176-.309-.928-1.239Zm1.8,29.848h4.829c.307,0,.559-.247.494-.682l-2.538-12.754c-.122-.437-.685-.437-.741,0l-2.542,12.754A.485.485,0,0,0,2151.567,1397.219Z" transform="translate(-2085.732 -1365.578)" fill="#fcec0c"/>
      <path id="Path_5" data-name="Path 5" d="M2307.268,1412.576h-6.933a1.352,1.352,0,0,1-1.484-.868l-5.885-15.108h-2.419c-.924,0-1.17.247-1.17,1.177v13.5c0,.932-.373,1.3-1.3,1.3h-6.317c-.925,0-1.3-.37-1.3-1.3v-43.841c0-.927.376-1.3,1.3-1.3h11.7c7.245,0,12.694,5.572,12.694,14.057v2.353c0,5.141-1.981,9.226-5.2,11.641l6.93,17.153C2308.2,1412.082,2307.95,1412.576,2307.268,1412.576Zm-16.721-24.337h1.986c2.476,0,4.707-1.917,4.707-6.067v-2.043c0-4.15-2.231-6.07-4.707-6.07h-1.986c-.924,0-1.17.249-1.17,1.177v11.829C2289.377,1387.994,2289.623,1388.239,2290.547,1388.239Z" transform="translate(-2195.909 -1365.578)" fill="#fcec0c"/>
      <path id="Path_6" data-name="Path 6" d="M1909.131,1693c-7.493,0-13.312-5.013-13.377-12.939,0-.621.065-1.118.807-1.118h6.314c.683,0,1.053.249,1.114.931.248,2.35,1.672,5.574,5.2,5.574a4.166,4.166,0,0,0,4.4-4.152c.869-8.048-17.148-11.763-17.148-24.334,0-6.564,4.7-11.518,12.257-11.518,8.052,0,12.141,5.386,12.263,12.136.061.62-.065,1.117-.807,1.117h-6.316c-.68,0-.99-.249-1.052-.931-.37-2.105-1.3-4.7-3.837-4.7a3.389,3.389,0,0,0-3.469,3.963c.869,6.257,17.152,11.331,17.152,23.716C1922.63,1689.218,1915.136,1693,1909.131,1693Z" transform="translate(-1895.754 -1583.502)" fill="#fcec0c"/>
      <path id="Path_7" data-name="Path 7" d="M2040.508,1665.678c0,.93.248,1.179,1.176,1.179h8.917c.931,0,1.3.37,1.3,1.3v5.326c0,.926-.37,1.3-1.3,1.3h-8.917c-.928,0-1.176.246-1.176,1.174v9.351c0,.929.248,1.176,1.176,1.176h8.917c.931,0,1.3.372,1.3,1.3v5.324c0,.931-.37,1.3-1.3,1.3h-17.707c-.93,0-1.3-.37-1.3-1.3v-43.843c0-.925.375-1.3,1.3-1.3H2050.6c.931,0,1.3.376,1.3,1.3v5.325c0,.929-.37,1.3-1.3,1.3h-8.917c-.928,0-1.176.248-1.176,1.177Z" transform="translate(-2001.737 -1585.474)" fill="#fcec0c"/>
      <path id="Path_8" data-name="Path 8" d="M2165.219,1694.412h-6.934a1.365,1.365,0,0,1-1.487-.867l-5.878-15.109H2148.5c-.928,0-1.173.245-1.173,1.174v13.5c0,.931-.375,1.3-1.3,1.3h-6.319c-.928,0-1.3-.37-1.3-1.3v-43.843c0-.925.373-1.3,1.3-1.3h11.708c7.238,0,12.689,5.574,12.689,14.057v2.355c0,5.139-1.981,9.227-5.2,11.641l6.937,17.152C2166.151,1693.917,2165.9,1694.412,2165.219,1694.412Zm-16.717-24.339h1.986c2.477,0,4.7-1.916,4.7-6.067v-2.043c0-4.15-2.228-6.07-4.7-6.07H2148.5c-.928,0-1.173.248-1.173,1.177V1668.9C2147.328,1669.828,2147.573,1670.073,2148.5,1670.073Z" transform="translate(-2085.08 -1585.474)" fill="#fcec0c"/>
      <path id="Path_9" data-name="Path 9" d="M2282.826,1647.966h6.629c.68,0,1.118.31.867,1.239l-10.837,43.965c-.25,1.053-.617,1.241-1.61,1.241h-4.891c-.993,0-1.363-.187-1.614-1.241l-10.894-43.965c-.251-.93.183-1.239.865-1.239h6.626a1.331,1.331,0,0,1,1.487,1.239l5.569,26.26a.376.376,0,0,0,.745,0l5.577-26.26C2281.59,1648.276,2282.023,1647.966,2282.826,1647.966Z" transform="translate(-2180.269 -1585.474)" fill="#fcec0c"/>
      <path id="Path_10" data-name="Path 10" d="M2403.325,1649.268c0-.925.371-1.3,1.3-1.3h6.319c.927,0,1.3.376,1.3,1.3v43.843c0,.931-.369,1.3-1.3,1.3h-6.319c-.929,0-1.3-.37-1.3-1.3Z" transform="translate(-2291.779 -1585.474)" fill="#fcec0c"/>
      <path id="Path_11" data-name="Path 11" d="M2458.276,1677.082v-15.729c0-9.6,4.336-15.913,13.564-15.913,8.607,0,12.879,5.758,13,12.57.062.62-.065,1.114-.806,1.114h-6.748c-.68,0-.989-.248-1.058-.928-.369-2.228-1.541-4.52-4.392-4.52-3.465,0-4.644,3.344-4.644,7.678v15.729c0,4.338,1.179,7.679,4.644,7.679,2.852,0,4.023-2.29,4.392-4.52.069-.68.378-.929,1.058-.929h6.748c.74,0,.868.5.806,1.117-.125,6.81-4.4,12.568-13,12.568C2462.612,1693,2458.276,1686.68,2458.276,1677.082Z" transform="translate(-2334.65 -1583.502)" fill="#fcec0c"/>
      <path id="Path_12" data-name="Path 12" d="M2602.472,1665.678c0,.93.248,1.179,1.177,1.179h8.914c.929,0,1.3.37,1.3,1.3v5.326c0,.926-.369,1.3-1.3,1.3h-8.914c-.93,0-1.177.246-1.177,1.174v9.351c0,.929.248,1.176,1.177,1.176h8.914c.929,0,1.3.372,1.3,1.3v5.324c0,.931-.369,1.3-1.3,1.3h-17.709c-.929,0-1.3-.37-1.3-1.3v-43.843c0-.925.372-1.3,1.3-1.3h17.709c.929,0,1.3.376,1.3,1.3v5.325c0,.929-.369,1.3-1.3,1.3h-8.914c-.93,0-1.177.248-1.177,1.177Z" transform="translate(-2440.202 -1585.474)" fill="#fcec0c"/>
    </g>
  </g>
</svg>
