<?xml version="1.0" standalone="no"?><!DOCTYPE svg PUBLIC "-//W3C//DTD SVG 1.1//EN" "http://www.w3.org/Graphics/SVG/1.1/DTD/svg11.dtd"><svg t="1589607069879" class="icon" viewBox="0 0 1024 1024" version="1.1" xmlns="http://www.w3.org/2000/svg" p-id="2379" width="32" height="32" xmlns:xlink="http://www.w3.org/1999/xlink"><defs><style type="text/css"></style></defs><path d="M614.4 102.4H102.4v512h204.8V409.6a102.4 102.4 0 0 1 102.4-102.4h204.8z m307.2 204.8a102.4 102.4 0 0 1 102.4 102.4v512a102.4 102.4 0 0 1-102.4 102.4H409.6a102.4 102.4 0 0 1-102.4-102.4v-204.8H102.4a102.4 102.4 0 0 1-102.4-102.4V102.4a102.4 102.4 0 0 1 102.4-102.4h512a102.4 102.4 0 0 1 102.4 102.4v204.8z m-369.152 241.152a51.2 51.2 0 0 1 72.704-72.704l153.6 153.6a51.2 51.2 0 0 1 0 72.704l-153.6 153.6a51.2 51.2 0 0 1-72.704-72.704L618.496 716.8H409.6v204.8h512V409.6H409.6v204.8h208.896z" p-id="2380" fill="#0404F4"></path></svg>