<svg xmlns="http://www.w3.org/2000/svg" xmlns:xlink="http://www.w3.org/1999/xlink" width="43" height="43" viewBox="0 0 43 43">
  <defs>
    <clipPath id="clip-path">
      <rect width="43" height="43" fill="none"/>
    </clipPath>
  </defs>
  <g id="nav_cost" clip-path="url(#clip-path)">
    <rect id="Rectangle_8" data-name="Rectangle 8" width="43" height="43" fill="#fff" opacity="0"/>
    <path id="Calculator" d="M690.059,392.782H674.945a.944.944,0,0,1-.945-.945V372.945a.944.944,0,0,1,.945-.945h15.114a.944.944,0,0,1,.945.945v18.893A.944.944,0,0,1,690.059,392.782Zm-.945-18.893H675.889v17h13.225Zm-10.391,1.889h7.557a.944.944,0,0,1,.945.945v1.889a.944.944,0,0,1-.945.945h-7.557a.944.944,0,0,1-.945-.945v-1.889A.944.944,0,0,1,678.723,375.779Zm0,6.612a.945.945,0,1,1-.945.945A.944.944,0,0,1,678.723,382.391Zm0,3.779a.945.945,0,1,1-.945.945A.944.944,0,0,1,678.723,386.17Zm3.779-3.779a.945.945,0,1,1-.945.945A.944.944,0,0,1,682.5,382.391Zm0,3.779a.945.945,0,1,1-.945.945A.944.944,0,0,1,682.5,386.17Zm3.779-3.779a.944.944,0,0,1,.945.945v3.779a.945.945,0,1,1-1.889,0v-3.779A.944.944,0,0,1,686.28,382.391Z" transform="translate(-661 -360.782)" fill="#0404f4" fill-rule="evenodd"/>
  </g>
</svg>
