<svg xmlns="http://www.w3.org/2000/svg" xmlns:xlink="http://www.w3.org/1999/xlink" width="43" height="43" viewBox="0 0 43 43">
  <defs>
    <clipPath id="clip-path">
      <rect width="43" height="43" fill="none"/>
    </clipPath>
    <clipPath id="clip-path-2">
      <path id="Path_29" data-name="Path 29" d="M2.55-14.9A2.552,2.552,0,0,1,0-17.45,2.552,2.552,0,0,1,2.55-20h10.2A2.551,2.551,0,0,1,15.3-17.45V-8.1h.848A2.553,2.553,0,0,1,18.7-5.55,2.547,2.547,0,0,1,16.148-3H5.95A2.55,2.55,0,0,1,3.4-5.55V-14.9ZM13.6-8.1v-9.35a.851.851,0,0,0-.853-.85H5.1V-8.1ZM8.5-5.55a2.557,2.557,0,0,1-.144.85h7.793A.848.848,0,0,0,17-5.55a.853.853,0,0,0-.852-.85H8.356a2.557,2.557,0,0,1,.144.85ZM5.95-4.7a.85.85,0,0,0,.85-.85.85.85,0,0,0-.85-.85.849.849,0,0,0-.85.85.85.85,0,0,0,.85.85ZM1.7-17.45a.848.848,0,0,0,.85.85.848.848,0,0,0,.85-.85v-.85H2.55a.848.848,0,0,0-.85.85Z" transform="translate(0 20)" fill="#0404f4" clip-rule="evenodd"/>
    </clipPath>
  </defs>
  <g id="nav_log" data-name="nav log" clip-path="url(#clip-path)">
    <rect id="Rectangle_12" data-name="Rectangle 12" width="43" height="43" fill="#fff" opacity="0"/>
    <g id="Group_21" data-name="Group 21" transform="translate(12 33)">
      <g id="Group_14" data-name="Group 14" transform="translate(0 -20)" clip-path="url(#clip-path-2)">
        <path id="Path_28" data-name="Path 28" d="M-5-25H22.2V.5H-5Z" transform="translate(0.75 20.75)" fill="#0404f4"/>
      </g>
    </g>
  </g>
</svg>
