<svg xmlns="http://www.w3.org/2000/svg" xmlns:xlink="http://www.w3.org/1999/xlink" width="43" height="43" viewBox="0 0 43 43">
  <defs>
    <clipPath id="clip-path">
      <rect width="43" height="43" fill="none"/>
    </clipPath>
  </defs>
  <g id="nav_team" clip-path="url(#clip-path)">
    <rect id="Rectangle_8" data-name="Rectangle 8" width="43" height="43" fill="#fff" opacity="0"/>
    <path id="Union_1" data-name="Union 1" d="M1144.892,3176.412c-.13-1.666.252-3.837-3.555-3.769a5.42,5.42,0,0,0-.823-2c3.038-.327,5.894.739,6.167,3.838l.144,1.934Zm-6.67,0-.229-2.824c-.141-1.457-1.587-2.206-4.049-2.206s-3.907.749-4.05,2.22l-.228,2.809h-1.947l.242-2.959c.255-2.621,2.434-4.116,5.983-4.116s5.728,1.5,5.982,4.1l.243,2.975Zm-17.157,0,.142-1.919c.271-3.086,3.083-4.184,6.173-3.851a5.48,5.48,0,0,0-.826,2c-3.771-.066-3.422,2.1-3.557,3.768Zm17.051-10.359a3.333,3.333,0,1,1,6.665,0,3.35,3.35,0,1,1-6.665,0Zm2.008,0c0,2.464,2.624,2.464,2.624,0,0-1.231-.677-1.244-1.312-1.244A1.248,1.248,0,0,0,1140.124,3166.053Zm-17.42,0a3.333,3.333,0,1,1,6.665,0,3.35,3.35,0,1,1-6.665,0Zm2.02,0c0,2.464,2.624,2.464,2.624,0a1.315,1.315,0,0,0-2.624,0Zm5.477-1.6a3.542,3.542,0,0,1,7.082,0c0,2.694-1.771,4.043-3.541,4.043S1130.2,3167.15,1130.2,3164.456Zm2.01,0c0,2.9,3.061,2.9,3.061,0,0-.829-.765-1.243-1.53-1.243S1132.212,3163.627,1132.212,3164.456Z" transform="translate(-1112.065 -3147)" fill="#0404f4"/>
  </g>
</svg>
