<svg xmlns="http://www.w3.org/2000/svg" xmlns:xlink="http://www.w3.org/1999/xlink" width="43" height="43" viewBox="0 0 43 43">
  <defs>
    <clipPath id="clip-path">
      <rect width="43" height="43" fill="none"/>
    </clipPath>
  </defs>
  <g id="nav_setting" clip-path="url(#clip-path)">
    <rect id="Rectangle_461" data-name="Rectangle 461" width="43" height="43" transform="translate(0.529 0.174)" fill="#fff" opacity="0"/>
    <g id="Group_807" data-name="Group 807" transform="translate(1.529 2.174)">
      <path id="Path_66" data-name="Path 66" d="M718.4,525.1c.017-.2.022-.406.022-.6s-.006-.4-.022-.6l1.578-1.628a1.108,1.108,0,0,0,.161-1.328l-1.667-2.889a1.111,1.111,0,0,0-1.233-.522l-2.194.55a7.811,7.811,0,0,0-1.044-.606l-.622-2.172a1.108,1.108,0,0,0-1.068-.8h-3.334a1.107,1.107,0,0,0-1.067.806l-.622,2.172a7.811,7.811,0,0,0-1.044.606l-2.194-.55a1.111,1.111,0,0,0-1.233.522l-1.667,2.888a1.108,1.108,0,0,0,.161,1.328l1.577,1.628c-.017.2-.022.406-.022.6s.006.4.022.6l-1.577,1.628a1.108,1.108,0,0,0-.161,1.328l1.667,2.889a1.109,1.109,0,0,0,.96.555,1.13,1.13,0,0,0,.272-.033l2.194-.55a7.811,7.811,0,0,0,1.044.606l.622,2.172a1.108,1.108,0,0,0,1.068.8h3.333a1.107,1.107,0,0,0,1.067-.806l.622-2.172a7.929,7.929,0,0,0,1.044-.606l2.194.55a1.133,1.133,0,0,0,.272.033,1.109,1.109,0,0,0,.961-.556l1.667-2.889a1.108,1.108,0,0,0-.161-1.328Zm-2.021-1.56,0,.078a5.4,5.4,0,0,1,.074.882,5.315,5.315,0,0,1-.07.863l.005.038-.012.054a.931.931,0,0,0,.06.36,1.215,1.215,0,0,0,.079.148,1.039,1.039,0,0,0,.1.133l.083.083,1.405,1.455-1.016,1.76-2.076-.52a.317.317,0,0,0-.078-.013.652.652,0,0,0-.124-.011.9.9,0,0,0-.285.047.728.728,0,0,0-.191.1l-.1.072a5.641,5.641,0,0,1-1.423.826l-.1.034c.014,0-.023.018-.056.039l-.107.072a.494.494,0,0,0-.084.073.908.908,0,0,0-.092.1.837.837,0,0,0-.111.215l-.02.061-.587,2.04h-2.028l-.605-2.094a.759.759,0,0,0-.1-.2l-.046-.079c.005.023-.023-.011-.053-.04a.548.548,0,0,0-.095-.083.606.606,0,0,0-.092-.066.767.767,0,0,0-.114-.058l-.1-.043a5.235,5.235,0,0,1-1.358-.788l-.055-.041a.45.45,0,0,0-.068-.046.841.841,0,0,0-.463-.141h0a1.081,1.081,0,0,0-.191.022l-.039.014-.043,0-.027.014-1.984.5-1.016-1.76,1.493-1.544a.946.946,0,0,0,.1-.133,1.1,1.1,0,0,0,.081-.154.886.886,0,0,0,.057-.311l-.007-.038,0-.075a5.149,5.149,0,0,1-.072-.882,5.312,5.312,0,0,1,.07-.862l-.005-.038.012-.054a.934.934,0,0,0-.06-.36,1.226,1.226,0,0,0-.079-.148,1.032,1.032,0,0,0-.1-.133l-1.489-1.538,1.016-1.76,2.091.522a1,1,0,0,0,.2.023h0a.827.827,0,0,0,.443-.132.559.559,0,0,0,.083-.055l.058-.042a5.5,5.5,0,0,1,1.4-.81l.1-.034c-.008,0,.029-.02.065-.042a.416.416,0,0,0,.076-.053.7.7,0,0,0,.108-.091.936.936,0,0,0,.089-.1.838.838,0,0,0,.111-.216l.02-.06.587-2.04h2.032l.605,2.094a.818.818,0,0,0,.086.185c.028.038.043.06.059.079a.847.847,0,0,0,.4.276,5.761,5.761,0,0,1,1.394.8h.006l.051.045.005,0,.073.054a.7.7,0,0,0,.186.093.869.869,0,0,0,.3.049.362.362,0,0,0,.072-.006.52.52,0,0,0,.114-.017l2.082-.52,1.016,1.759-1.494,1.545a.944.944,0,0,0-.1.132,1.317,1.317,0,0,0-.082.155.9.9,0,0,0-.056.31Z" transform="translate(-690 -504.5)" fill="#0404f4"/>
    </g>
  </g>
</svg>
