<svg xmlns="http://www.w3.org/2000/svg" xmlns:xlink="http://www.w3.org/1999/xlink" width="43" height="43" viewBox="0 0 43 43">
  <defs>
    <clipPath id="clip-path">
      <rect width="43" height="43" fill="none"/>
    </clipPath>
    <clipPath id="clip-path-2">
      <path id="Path_22" data-name="Path 22" d="M12.667-5.112a1.052,1.052,0,0,1,1.056-1.055,1.052,1.052,0,0,1,1.056,1.055v1.057h2.111V-8.278H2.111v4.222H4.222V-5.112A1.052,1.052,0,0,1,5.278-6.167,1.052,1.052,0,0,1,6.333-5.112v1.057h6.333ZM10.556-19.889h3.172a2.113,2.113,0,0,1,2.106,2.116v7.378l2.111.005A1.055,1.055,0,0,1,19-9.337V-3a1.053,1.053,0,0,1-1.056,1.052H1.056A1.055,1.055,0,0,1,0-3v-6.34a1.052,1.052,0,0,1,1.056-1.052H3.167v-7.384a2.11,2.11,0,0,1,2.106-2.116H8.444v-1.057A1.052,1.052,0,0,1,9.5-22a1.052,1.052,0,0,1,1.056,1.055ZM5.278-10.394s8.45.005,8.45.005-.005-7.384-.005-7.384-8.45-.005-8.45-.005.005,7.384.005,7.384Zm10.556-6.328h1.056a1.052,1.052,0,0,1,1.056,1.054v2.113A1.053,1.053,0,0,1,16.889-12.5H15.833Zm-12.667,0V-12.5H2.111a1.053,1.053,0,0,1-1.056-1.054v-2.113a1.052,1.052,0,0,1,1.056-1.054Zm4.222,5.278A1.052,1.052,0,0,1,8.443-12.5h2.113a1.053,1.053,0,0,1,1.054,1.056v1.056H7.389Zm0-2.111a1.055,1.055,0,0,1-1.056-1.056,1.055,1.055,0,0,1,1.056-1.056,1.055,1.055,0,0,1,1.056,1.056,1.056,1.056,0,0,1-1.056,1.056Zm4.222,0a1.055,1.055,0,0,1-1.056-1.056,1.055,1.055,0,0,1,1.056-1.056,1.055,1.055,0,0,1,1.056,1.056,1.056,1.056,0,0,1-1.056,1.056Z" transform="translate(0 22)" fill="#0404f4" clip-rule="evenodd"/>
    </clipPath>
  </defs>
  <g id="nav_account" clip-path="url(#clip-path)">
    <rect id="Rectangle_9" data-name="Rectangle 9" width="43" height="43" fill="#fff" opacity="0"/>
    <g id="Group_19" data-name="Group 19" transform="translate(12 33)">
      <g id="Group_11" data-name="Group 11" transform="translate(0 -22)" clip-path="url(#clip-path-2)">
        <path id="Path_21" data-name="Path 21" d="M-5-27H23.5V2.556H-5Z" transform="translate(0.25 22.25)" fill="#0404f4"/>
      </g>
    </g>
  </g>
</svg>
