<svg id="Component_100_2" data-name="Component 100 – 2" xmlns="http://www.w3.org/2000/svg" width="43" height="43" viewBox="0 0 43 43">
  <defs>
    <style>
      .cls-1 {
        fill: #fff;
        opacity: 0;
      }

      .cls-2 {
        fill: #0404f4;
        fill-rule: evenodd;
      }
    </style>
  </defs>
  <path id="Path_38" data-name="Path 38" class="cls-1" d="M0,0H43V43H0Z"/>
  <path id="Constract" class="cls-2" d="M655.667,310H642.333a.833.833,0,0,1,0-1.667h0A1.667,1.667,0,0,0,644,306.667v-12.5h-4.167a.833.833,0,0,1-.833-.833h0A3.333,3.333,0,0,1,642.333,290h13.333A3.334,3.334,0,0,1,659,293.333v13.333A3.334,3.334,0,0,1,655.667,310Zm-13.333-18.333h0a1.66,1.66,0,0,0-1.436.833h2.872A1.66,1.66,0,0,0,642.333,291.667Zm15,1.667a1.667,1.667,0,0,0-1.667-1.667H645.2a3.3,3.3,0,0,1,.462,1.667v13.333a3.3,3.3,0,0,1-.462,1.667h10.462a1.667,1.667,0,0,0,1.667-1.667Zm-2.5,13.333h-1.667a.833.833,0,0,1,0-1.667h1.667a.833.833,0,0,1,0,1.667Zm0-3.333h-6.667a.833.833,0,0,1,0-1.667h6.667a.833.833,0,0,1,0,1.667Zm0-2.5h-4.167a.833.833,0,0,1,0-1.667h4.167a.833.833,0,0,1,0,1.667Zm-2.5-5a.833.833,0,0,1,0,1.667h-1.667a.833.833,0,0,1,0-1.667ZM654,295h-5a.833.833,0,1,1,0-1.667h5A.833.833,0,0,1,654,295Z" transform="translate(-628 -278)"/>
</svg>
