<svg xmlns="http://www.w3.org/2000/svg" width="20.16" height="23" viewBox="0 0 20.16 23">
  <g id="Group_79" data-name="Group 79" transform="translate(-205.108 -725.248)">
    <path id="Path_70" data-name="Path 70" d="M224.937,736.534c.407,2.694-.77,3.986-2.268,6.018s-2.286,4.2-4.979,4.606a8.671,8.671,0,0,1-6.785-2.023,8.42,8.42,0,0,1-3.659-5.927c-.407-2.693-1.535-6.025-.036-8.057s4.893-2.739,7.587-3.146,4.647,1.3,6.679,2.8A7.819,7.819,0,0,1,224.937,736.534Z" transform="translate(-0.613 -1.592)" fill="#fff" opacity="0.88"/>
    <g id="Group_78" data-name="Group 78" transform="translate(205.608 725.748)">
      <path id="Union_2" data-name="Union 2" d="M-3488.592-2042a4.415,4.415,0,0,1-4.408-4.409v-13.183a4.412,4.412,0,0,1,4.408-4.408h9.237a4.409,4.409,0,0,1,4.408,4.408v3.95h-1.763v-3.95a2.646,2.646,0,0,0-2.645-2.645h-2.789a1.877,1.877,0,0,1,.018.261,1.848,1.848,0,0,1-1.848,1.848,1.848,1.848,0,0,1-1.848-1.848,1.877,1.877,0,0,1,.018-.261h-2.789a2.649,2.649,0,0,0-2.645,2.645v13.183a2.651,2.651,0,0,0,2.645,2.645h9.237a2.648,2.648,0,0,0,2.645-2.645v-4.4h1.763v4.4a4.413,4.413,0,0,1-4.408,4.409Zm-1.036-3.441v-1.764h7.1v1.764Zm0-3.649v-1.763h3.737v1.763Zm10.764-1.644-2.928-2.205a.358.358,0,0,1,0-.573l2.928-2.2a.358.358,0,0,1,.573.286v1.323h4.45v1.764h-4.45v1.323a.359.359,0,0,1-.36.359A.353.353,0,0,1-3478.864-2050.734Zm-10.764-2v-1.764h4.679v1.764Zm0-3.649v-1.764h6.177v1.764Z" transform="translate(3493 2064)" fill="#0404f4" stroke="rgba(0,0,0,0)" stroke-width="1"/>
    </g>
  </g>
</svg>
