<svg xmlns="http://www.w3.org/2000/svg" width="23.57" height="22" viewBox="0 0 23.57 22">
  <g id="Group_345" data-name="Group 345" transform="translate(-887.832 -1817.886)">
    <g id="Group_346" data-name="Group 346" transform="translate(887.832 1817.886)">
      <g id="Group_345-2" data-name="Group 345" transform="translate(0 0)">
        <path id="Path_103" data-name="Path 103" d="M903.658,1836.913a2.638,2.638,0,0,1-2.212,1.21h-9.216a2.647,2.647,0,0,1-2.638-2.645v-13.183a2.645,2.645,0,0,1,2.638-2.645h9.216a2.636,2.636,0,0,1,2.371,1.492,7.682,7.682,0,0,1,1.146-.085,6.8,6.8,0,0,1,.714.035,4.4,4.4,0,0,0-4.232-3.206h-9.216a4.407,4.407,0,0,0-4.4,4.408v13.183a4.409,4.409,0,0,0,4.4,4.409h9.216a4.4,4.4,0,0,0,4.126-2.888c-.2.018-.4.024-.609.024A7.621,7.621,0,0,1,903.658,1836.913Z" transform="translate(-887.832 -1817.886)" fill="#0404f4"/>
      </g>
    </g>
    <g id="Group_348" data-name="Group 348" transform="translate(894.931 1818.064)">
      <g id="Group_347" data-name="Group 347" transform="translate(0 0)">
        <circle id="Ellipse_28" data-name="Ellipse 28" cx="1.863" cy="1.863" r="1.863" fill="#0404f4"/>
      </g>
    </g>
    <g id="Group_350" data-name="Group 350" transform="translate(898.507 1822.591)">
      <g id="Group_349" data-name="Group 349">
        <path id="Path_104" data-name="Path 104" d="M933.493,1848.092a6.447,6.447,0,1,1,6.447-6.447A6.455,6.455,0,0,1,933.493,1848.092Zm0-11.117a4.67,4.67,0,1,0,4.669,4.669A4.675,4.675,0,0,0,933.493,1836.976Z" transform="translate(-927.046 -1835.198)" fill="#0404f4"/>
      </g>
    </g>
    <g id="Group_352" data-name="Group 352" transform="translate(891.232 1823.731)">
      <g id="Group_351" data-name="Group 351" transform="translate(0 0)">
        <rect id="Rectangle_77" data-name="Rectangle 77" width="6.228" height="1.778" fill="#0404f4"/>
      </g>
    </g>
    <g id="Group_354" data-name="Group 354" transform="translate(891.232 1827.378)">
      <g id="Group_353" data-name="Group 353" transform="translate(0 0)">
        <rect id="Rectangle_78" data-name="Rectangle 78" width="4.717" height="1.778" fill="#0404f4"/>
      </g>
    </g>
    <g id="Group_356" data-name="Group 356" transform="translate(891.232 1834.671)">
      <g id="Group_355" data-name="Group 355" transform="translate(0 0)">
        <rect id="Rectangle_79" data-name="Rectangle 79" width="7.161" height="1.778" fill="#0404f4"/>
      </g>
    </g>
    <g id="Group_358" data-name="Group 358" transform="translate(891.232 1831.024)">
      <g id="Group_357" data-name="Group 357" transform="translate(0 0)">
        <rect id="Rectangle_80" data-name="Rectangle 80" width="3.767" height="1.778" fill="#0404f4"/>
      </g>
    </g>
    <g id="Group_360" data-name="Group 360" transform="translate(903.248 1825.78)">
      <g id="Group_359" data-name="Group 359" transform="translate(0 0)">
        <path id="Path_105" data-name="Path 105" d="M946.806,1851.291h-2.829v-1.778h1.046l-.009-2.841,1.778-.005Z" transform="translate(-943.977 -1846.667)" fill="#0404f4"/>
      </g>
    </g>
  </g>
</svg>
