<svg xmlns="http://www.w3.org/2000/svg" width="33.809" height="27.904" viewBox="0 0 33.809 27.904">
  <g id="Group_2" data-name="Group 2" transform="translate(-1326.066 -794.632)">
    <path id="Path_1" data-name="Path 1" d="M1337.374,797.83a3.2,3.2,0,0,1,6.4,0l0,4.863a1.905,1.905,0,0,0,2.493,1.811l4.625-1.5a3.2,3.2,0,0,1,1.977,6.085l-4.624,1.5a1.905,1.905,0,0,0-.952,2.931l2.856,3.935a3.2,3.2,0,0,1-5.176,3.76l-2.86-3.932a1.905,1.905,0,0,0-3.081,0l-2.86,3.932a3.2,3.2,0,0,1-5.176-3.76l2.856-3.935a1.9,1.9,0,0,0-.952-2.931l-4.624-1.5a3.2,3.2,0,0,1,1.977-6.085l4.625,1.5a1.9,1.9,0,0,0,2.493-1.811Z" transform="translate(0 0)" fill="#0404f4" fill-rule="evenodd"/>
    <g id="Group_1" data-name="Group 1" transform="translate(1340.229 808.778)">
      <path id="Path_2" data-name="Path 2" d="M1897.266,1368.986a1.433,1.433,0,0,1-1.513-1.464c0-.07.007-.126.091-.126h.714c.077,0,.119.028.126.105a.631.631,0,0,0,.589.631.471.471,0,0,0,.5-.47c.1-.91-1.94-1.331-1.94-2.752a1.281,1.281,0,0,1,1.387-1.3,1.3,1.3,0,0,1,1.387,1.373c.007.07-.007.126-.091.126h-.714c-.077,0-.112-.028-.119-.105-.042-.238-.147-.532-.434-.532a.383.383,0,0,0-.392.448c.1.708,1.94,1.282,1.94,2.683A1.432,1.432,0,0,1,1897.266,1368.986Z" transform="translate(-1895.753 -1363.606)" fill="#fcec0c"/>
      <path id="Path_3" data-name="Path 3" d="M2027.929,1366.279v.6c0,.105-.042.147-.147.147h-.624c-.105,0-.133.028-.133.133v4.077c0,.105-.042.147-.147.147h-.715c-.1,0-.147-.042-.147-.147v-4.077c0-.105-.028-.133-.133-.133h-.624c-.1,0-.147-.042-.147-.147v-.6c0-.1.042-.147.147-.147h2.522C2027.887,1366.132,2027.929,1366.174,2027.929,1366.279Z" transform="translate(-2021.897 -1366.069)" fill="#fcec0c"/>
      <path id="Path_4" data-name="Path 4" d="M2140.434,1366.272c.028-.119.077-.14.189-.14h.567c.112,0,.161.021.189.14l1.183,4.974c.029.105-.027.14-.1.14h-.735c-.091,0-.14-.028-.168-.14l-.133-.6c-.021-.084-.049-.1-.14-.1h-.75c-.091,0-.119.014-.14.1l-.133.6c-.028.112-.077.14-.168.14h-.736c-.077,0-.133-.035-.1-.14Zm.2,3.377h.546c.035,0,.063-.028.056-.077l-.287-1.443c-.014-.049-.077-.049-.084,0l-.288,1.443A.055.055,0,0,0,2140.637,1369.649Z" transform="translate(-2133.189 -1366.069)" fill="#fcec0c"/>
      <path id="Path_5" data-name="Path 5" d="M2283.488,1371.386h-.784a.153.153,0,0,1-.168-.1l-.666-1.709h-.274c-.1,0-.132.028-.132.133v1.527c0,.105-.042.147-.147.147h-.715c-.1,0-.147-.042-.147-.147v-4.96c0-.1.042-.147.147-.147h1.324a1.455,1.455,0,0,1,1.436,1.59v.266a1.593,1.593,0,0,1-.588,1.317l.784,1.94C2283.594,1371.33,2283.565,1371.386,2283.488,1371.386Zm-1.892-2.753h.225c.28,0,.532-.217.532-.686v-.231c0-.469-.252-.687-.532-.687h-.225c-.1,0-.132.028-.132.133v1.338C2281.464,1368.605,2281.492,1368.633,2281.6,1368.633Z" transform="translate(-2270.891 -1366.069)" fill="#fcec0c"/>
      <path id="Path_6" data-name="Path 6" d="M1897.266,1650.82a1.433,1.433,0,0,1-1.513-1.464c0-.07.007-.126.091-.126h.714c.077,0,.119.028.126.105a.631.631,0,0,0,.589.631.471.471,0,0,0,.5-.47c.1-.91-1.94-1.331-1.94-2.753a1.281,1.281,0,0,1,1.387-1.3,1.3,1.3,0,0,1,1.387,1.373c.007.07-.007.126-.091.126h-.714c-.077,0-.112-.028-.119-.105-.042-.238-.147-.532-.434-.532a.383.383,0,0,0-.392.448c.1.708,1.94,1.282,1.94,2.683A1.432,1.432,0,0,1,1897.266,1650.82Z" transform="translate(-1895.753 -1638.433)" fill="#fcec0c"/>
      <path id="Path_7" data-name="Path 7" d="M2032.6,1649.97c0,.105.028.133.133.133h1.009c.105,0,.147.042.147.147v.6c0,.1-.042.147-.147.147h-1.009c-.1,0-.133.028-.133.133v1.058c0,.105.028.133.133.133h1.009c.105,0,.147.042.147.147v.6c0,.105-.042.147-.147.147h-2c-.105,0-.148-.042-.148-.147v-4.96c0-.1.042-.147.148-.147h2c.105,0,.147.042.147.147v.6c0,.105-.042.147-.147.147h-1.009c-.1,0-.133.028-.133.133Z" transform="translate(-2028.212 -1640.897)" fill="#fcec0c"/>
      <path id="Path_8" data-name="Path 8" d="M2141.44,1653.22h-.784a.154.154,0,0,1-.168-.1l-.665-1.709h-.273c-.1,0-.133.028-.133.133v1.527c0,.105-.042.147-.147.147h-.715c-.1,0-.147-.042-.147-.147v-4.96c0-.1.042-.147.147-.147h1.324a1.455,1.455,0,0,1,1.436,1.59v.266a1.592,1.592,0,0,1-.589,1.317l.785,1.94C2141.545,1653.164,2141.517,1653.22,2141.44,1653.22Zm-1.891-2.753h.225c.28,0,.532-.217.532-.686v-.231c0-.469-.252-.687-.532-.687h-.225c-.1,0-.133.028-.133.133v1.338C2139.416,1650.439,2139.444,1650.467,2139.549,1650.467Z" transform="translate(-2132.374 -1640.897)" fill="#fcec0c"/>
      <path id="Path_9" data-name="Path 9" d="M2262.941,1647.966h.75c.077,0,.126.035.1.14l-1.226,4.974c-.028.119-.07.14-.182.14h-.553c-.112,0-.154-.021-.183-.14l-1.232-4.974c-.028-.105.021-.14.1-.14h.75a.151.151,0,0,1,.168.14l.63,2.971a.043.043,0,0,0,.084,0l.631-2.971C2262.8,1648,2262.851,1647.966,2262.941,1647.966Z" transform="translate(-2251.34 -1640.897)" fill="#fcec0c"/>
      <path id="Path_10" data-name="Path 10" d="M2403.324,1648.113c0-.1.042-.147.147-.147h.715c.1,0,.147.042.147.147v4.96c0,.105-.042.147-.147.147h-.715c-.1,0-.147-.042-.147-.147Z" transform="translate(-2390.706 -1640.897)" fill="#fcec0c"/>
      <path id="Path_11" data-name="Path 11" d="M2458.275,1649.02v-1.779c0-1.086.49-1.8,1.534-1.8a1.369,1.369,0,0,1,1.471,1.422c.007.07-.007.126-.091.126h-.763c-.077,0-.112-.028-.12-.105-.042-.252-.174-.511-.5-.511-.392,0-.525.378-.525.869v1.779c0,.491.133.869.525.869.323,0,.455-.259.5-.511.008-.077.043-.105.12-.105h.763c.084,0,.1.056.091.126a1.369,1.369,0,0,1-1.471,1.422C2458.765,1650.82,2458.275,1650.105,2458.275,1649.02Z" transform="translate(-2444.29 -1638.433)" fill="#fcec0c"/>
      <path id="Path_12" data-name="Path 12" d="M2594.562,1649.97c0,.105.028.133.133.133h1.008c.105,0,.147.042.147.147v.6c0,.1-.042.147-.147.147H2594.7c-.105,0-.133.028-.133.133v1.058c0,.105.028.133.133.133h1.008c.105,0,.147.042.147.147v.6c0,.105-.042.147-.147.147h-2c-.105,0-.147-.042-.147-.147v-4.96c0-.1.042-.147.147-.147h2c.105,0,.147.042.147.147v.6c0,.105-.042.147-.147.147H2594.7c-.105,0-.133.028-.133.133Z" transform="translate(-2576.205 -1640.897)" fill="#fcec0c"/>
    </g>
  </g>
</svg>
