<?xml version="1.0" standalone="no"?><!DOCTYPE svg PUBLIC "-//W3C//DTD SVG 1.1//EN" "http://www.w3.org/Graphics/SVG/1.1/DTD/svg11.dtd"><svg t="1589607134575" class="icon" viewBox="0 0 1024 1024" version="1.1" xmlns="http://www.w3.org/2000/svg" p-id="2626" xmlns:xlink="http://www.w3.org/1999/xlink" width="32" height="32"><defs><style type="text/css"></style></defs><path d="M819.193446 921.600936v-153.891164a51.492101 51.492101 0 0 1 102.399064 0v153.891164a102.399064 102.399064 0 0 1-102.399064 102.399064H204.799064A102.399064 102.399064 0 0 1 102.4 921.600936v-153.891164a51.492101 51.492101 0 0 1 102.399064 0v153.891164zM403.745816 234.064365l58.513751-58.513751v592.159158a51.492101 51.492101 0 0 0 102.399064 0V175.550614l58.513751 58.513751a51.492101 51.492101 0 0 0 70.2165 0 50.906963 50.906963 0 0 0 0-72.557051L548.274781 15.222937A48.566413 48.566413 0 0 0 511.996255 0.009362a50.321826 50.321826 0 0 0-36.278525 15.213575L331.188765 159.751902A51.492101 51.492101 0 0 0 403.745816 234.064365z" p-id="2627" fill="#0404F4"></path></svg>