<svg xmlns="http://www.w3.org/2000/svg" width="18.548" height="20.227" viewBox="0 0 18.548 20.227">
  <g id="Group_741" data-name="Group 741" transform="translate(-1125.451 -1599.533)">
    <g id="Group_736" data-name="Group 736" transform="translate(1125.701 1599.825)">
      <g id="Group_735" data-name="Group 735" transform="translate(0 0)">
        <path id="Path_121" data-name="Path 121" d="M1134.725,1619.51a3.723,3.723,0,0,1-1.862-.5l-5.3-3.059a3.735,3.735,0,0,1-1.862-3.226v-6.12a3.735,3.735,0,0,1,1.862-3.225l5.3-3.06a3.737,3.737,0,0,1,3.725,0l5.3,3.06a3.734,3.734,0,0,1,1.862,3.225v6.12a3.735,3.735,0,0,1-1.862,3.226l-5.3,3.059A3.722,3.722,0,0,1,1134.725,1619.51Zm0-18.035a2.076,2.076,0,0,0-1.037.277l-5.3,3.06a2.08,2.08,0,0,0-1.038,1.8v6.12a2.081,2.081,0,0,0,1.038,1.8l5.3,3.059a2.082,2.082,0,0,0,2.075,0l5.3-3.059a2.081,2.081,0,0,0,1.037-1.8v-6.12a2.08,2.08,0,0,0-1.037-1.8l-5.3-3.06A2.076,2.076,0,0,0,1134.725,1601.474Z" transform="translate(-1125.701 -1599.825)" fill="#0404f4" stroke="#0404f4" stroke-width="0.5"/>
      </g>
    </g>
    <g id="Group_738" data-name="Group 738" transform="translate(1133.9 1605.248)">
      <g id="Group_737" data-name="Group 737" transform="translate(0 0)">
        <rect id="Rectangle_452" data-name="Rectangle 452" width="1.65" height="5.61" fill="#0404f4" stroke="#0404f4" stroke-width="0.5"/>
      </g>
    </g>
    <g id="Group_740" data-name="Group 740" transform="translate(1133.9 1612.26)">
      <g id="Group_739" data-name="Group 739" transform="translate(0 0)">
        <rect id="Rectangle_453" data-name="Rectangle 453" width="1.65" height="1.554" fill="#0404f4" stroke="#0404f4" stroke-width="0.5"/>
      </g>
    </g>
  </g>
</svg>
